<?xml version="1.0" encoding="utf-8"?>
<!-- Generator: Adobe Illustrator 24.3.0, SVG Export Plug-In . SVG Version: 6.00 Build 0)  -->
<svg id="Layer_3" xmlns="http://www.w3.org/2000/svg"
	 viewBox="0 0 262.7 126.2" >

	<path d="M54.7,46.8h-9.4V9.6h9.4C65,9.6,73.3,18,73.3,28.2S65,46.8,54.7,46.8z M54.7,17h-2v22.4h2c6.2,0,11.2-5,11.2-11.2
		C66,22,61,17,54.7,17z"/>
	<path d="M79.6,46.8V9.6h7.4v37.1H79.6z"/>
	<path d="M122.3,35.1h-9.8v-6.9h19.3c0,10.6-8.7,19.3-19.3,19.3c-10.7,0-19.3-8.7-19.3-19.3c0-10.7,8.7-19.3,19.3-19.3
		c5.1,0,10,2.1,13.7,5.6l-5.2,5.2c-2.2-2.2-5.3-3.5-8.5-3.5c-6.7,0-12,5.4-12,12c0,6.6,5.4,12,12,12
		C116.6,40.2,120.2,38.2,122.3,35.1z"/>
	<path d="M136.7,46.8V9.6h7.4v37.1H136.7z"/>
	<path d="M163,17v29.8h-7.4V17h-6.2V9.6h19.8V17H163z"/>
	<path d="M188.4,43.7h-11.3l-1.1,3.1H168l14.7-38.3l14.7,38.3h-7.9L188.4,43.7z M179.1,38.4h7.3l-3.6-9.6L179.1,38.4z"/>
	<path d="M202.1,46.8V9.6h7.4v29.8h12.4v7.4H202.1z"/>
	<path d="M49.2,96.8v15h-7.4V74.7h19.8V82H49.2v7.4h12.4v7.3H49.2z"/>
	<path d="M80.3,112.5c-6.4,0-11.7-5.2-11.7-11.7V74.7H76v26.2c0,2.4,1.9,4.3,4.3,4.3s4.3-2,4.3-4.3V74.7h7.3v26.2
		C91.9,107.3,86.7,112.5,80.3,112.5z"/>
	<path d="M110.9,82v29.8h-7.4V82h-6.2v-7.4h19.8V82H110.9z"/>
	<path d="M134.2,112.5c-6.5,0-11.7-5.2-11.7-11.7V74.7h7.4v26.2c0,2.4,1.9,4.3,4.3,4.3s4.3-2,4.3-4.3V74.7h7.3v26.2
		C145.8,107.3,140.6,112.5,134.2,112.5z"/>
	<path d="M170.3,100.6l9.8,11.2h-9.8l-8.4-9.6v9.6h-7.4V74.7h9.4c7.6,0,13.8,6.2,13.8,13.8C177.7,93.5,174.8,98.2,170.3,100.6z
		 M163.9,82h-2v12.8h2c3.5,0,6.4-2.9,6.4-6.4C170.3,84.9,167.4,82,163.9,82z"/>
	<path d="M184.4,111.8V74.7h19.8V82h-12.4v7.4h12.4v7.3h-12.4v7.6h12.4v7.4H184.4z"/>
	<path d="M210.5,112.3c-0.5,0-1,0-1.4-0.2v-7.4c0.4,0.2,0.9,0.3,1.4,0.3c2.8,0,5.2-2.4,5.2-5.3c0-2.2-1.2-4-2.4-5.9
		c-1.5-2.2-3-4.6-3-8c0-6.8,4.7-11.7,11.7-11.7h0.3v7.3h-0.3c-2.5,0-4.4,2.1-4.4,4.7c0,1.5,1,2.9,2.1,4.6c1.6,2.2,3.4,4.9,3.4,8.9
		C223.1,107.2,218,112.3,210.5,112.3z"/>

</svg>
