<svg
        id="Layer_3"
        data-name="Layer 3"
        xmlns="http://www.w3.org/2000/svg"
        viewBox="0 0 262.68 126.24"
      >
        <path
          d="M60.69,23a3.79,3.79,0,0,0-1-2.82,10.89,10.89,0,0,0-3.47-2,16.22,16.22,0,0,1-6.62-4.08,8.23,8.23,0,0,1-2-5.53,7.75,7.75,0,0,1,2.74-6.21,10.32,10.32,0,0,1,7-2.34,10.46,10.46,0,0,1,5,1.19,8.17,8.17,0,0,1,3.39,3.35,10,10,0,0,1,1.18,4.91H60.77a5.08,5.08,0,0,0-.91-3.27,3.2,3.2,0,0,0-2.64-1.12A3.32,3.32,0,0,0,54.7,6a3.58,3.58,0,0,0-.9,2.57,3.18,3.18,0,0,0,1,2.28A11.76,11.76,0,0,0,58.38,13a15.3,15.3,0,0,1,6.5,4,8.86,8.86,0,0,1,2,6,7.85,7.85,0,0,1-2.54,6.23,10,10,0,0,1-6.91,2.25,11.9,11.9,0,0,1-5.39-1.22,9,9,0,0,1-3.81-3.48,10.11,10.11,0,0,1-1.38-5.36h6.2a5.89,5.89,0,0,0,1,3.85,4.25,4.25,0,0,0,3.36,1.19Q60.69,26.39,60.69,23Z"
        />
        <path
          d="M92.22,20.24V31H86.05V.42H96.46a9.56,9.56,0,0,1,7.23,2.81,10.12,10.12,0,0,1,2.7,7.31,9.49,9.49,0,0,1-2.66,7.1,10.18,10.18,0,0,1-7.4,2.6Zm0-5.14h4.24a3.35,3.35,0,0,0,2.73-1.16,5.14,5.14,0,0,0,1-3.36,6,6,0,0,0-1-3.64,3.2,3.2,0,0,0-2.65-1.38h-4.3Z"
        />
        <path
          d="M141.35,17.76h-9.62v8.11h11.38V31H125.56V.42h17.51V5.56H131.73v7.23h9.62Z"
        />
        <path
          d="M177.5,17.76h-9.62v8.11h11.38V31H161.71V.42h17.51V5.56H167.88v7.23h9.62Z"
        />
        <path
          d="M197.86,31V.42h8.08a11.13,11.13,0,0,1,8.54,3.4q3.18,3.41,3.24,9.32v5q0,6-3.18,9.46T205.77,31ZM204,5.56V25.87h1.85c2.06,0,3.51-.55,4.35-1.63s1.28-3,1.32-5.62V13.31c0-2.85-.4-4.85-1.2-6a4.83,4.83,0,0,0-4.07-1.78Z"
        />
        <path
          d="M21.19,100.4H13.63v25.42H7.43V100.4H0V95.25H21.19Z"
        />
        <path
          d="M61.22,125.82H55.07V112.74H46v13.08H39.78V95.25H46v12.37h9.11V95.25h6.15Z"
        />
        <path
          d="M102.75,113.29q0,6.15-2.91,9.55a10,10,0,0,1-8.07,3.4,10.17,10.17,0,0,1-8.09-3.37q-2.94-3.36-3-9.44v-5.22q0-6.3,2.92-9.84a9.92,9.92,0,0,1,8.1-3.54,10,10,0,0,1,8,3.48q2.94,3.47,3,9.75Zm-6.2-5.13A12.63,12.63,0,0,0,95.38,102a4.35,4.35,0,0,0-7.29-.07,12,12,0,0,0-1.22,5.91v5.44q0,4,1.2,5.91a4.08,4.08,0,0,0,3.7,1.9,4,4,0,0,0,3.59-1.86,11.15,11.15,0,0,0,1.19-5.76Z"
        />
        <path
          d="M142.11,95.25v21.17c0,3.17-.9,5.61-2.63,7.29s-4.19,2.53-7.41,2.53-5.77-.85-7.5-2.56S122,119.5,122,116.27v-21h6.21v21A6.32,6.32,0,0,0,129,120a4.72,4.72,0,0,0,6.07,0,6.4,6.4,0,0,0,.84-3.62V95.25Z"
        />
        <path
          d="M182.63,122.36a11.23,11.23,0,0,1-4.38,2.91,16,16,0,0,1-5.68,1q-5.26,0-8.19-3.26t-3-9.5V108q0-6.33,2.76-9.74c1.84-2.27,4.53-3.41,8.05-3.41q5,0,7.51,2.46t2.93,7.7h-6a6.83,6.83,0,0,0-1.22-4,3.88,3.88,0,0,0-3-1.06,3.94,3.94,0,0,0-3.63,1.82q-1.14,1.83-1.18,5.82v5.54c0,2.79.42,4.81,1.25,6.08a4.55,4.55,0,0,0,4.11,1.9,5.39,5.39,0,0,0,3-.74l.54-.37V114.4h-4.32v-4.66h10.52Z"
        />
        <path
          d="M223.48,125.82h-6.15V112.74h-9.11v13.08h-6.17V95.25h6.17v12.37h9.11V95.25h6.15Z"
        />
        <path
          d="M262.68,100.4h-7.56v25.42h-6.19V100.4h-7.44V95.25h21.19Z"
        />
        <path
          d="M122.22,71.2a4.64,4.64,0,0,1-2-.42,4.71,4.71,0,0,1-1.6-1.22,6.11,6.11,0,0,1-1.08-2,8,8,0,0,1-.41-2.62,11,11,0,0,1,.76-4,13,13,0,0,1,2-3.47,10.46,10.46,0,0,1,2.84-2.45,6.45,6.45,0,0,1,3.3-.93,5,5,0,0,1,2.06.42,4.36,4.36,0,0,1,1.61,1.21,5.77,5.77,0,0,1,1.06,1.89,7.46,7.46,0,0,1,.38,2.43A10.7,10.7,0,0,1,130.4,64a13.67,13.67,0,0,1-2,3.56,11.14,11.14,0,0,1-2.87,2.59A6.14,6.14,0,0,1,122.22,71.2Zm.18-1.55a2.93,2.93,0,0,0,2.09-1.09,10.44,10.44,0,0,0,1.86-2.74,18.59,18.59,0,0,0,1.34-3.61,14.71,14.71,0,0,0,.51-3.72,3.36,3.36,0,0,0-.57-2.26,2,2,0,0,0-1.57-.62,2.43,2.43,0,0,0-1.38.48,6,6,0,0,0-1.32,1.31,13,13,0,0,0-1.16,1.93,17.44,17.44,0,0,0-1,2.29,19.25,19.25,0,0,0-.62,2.46,14.64,14.64,0,0,0-.21,2.41,4,4,0,0,0,.56,2.45A1.73,1.73,0,0,0,122.4,69.65Z"
        />
        <path
          d="M137,68.63a40.39,40.39,0,0,1-1.61,5.16,12.36,12.36,0,0,1-1.73,3.14,5.1,5.1,0,0,1-2,1.59,6.59,6.59,0,0,1-2.41.43,3.28,3.28,0,0,1-2.13-.68,2.1,2.1,0,0,1-.84-1.68,1.76,1.76,0,0,1,.4-1.22,1.43,1.43,0,0,1,1.12-.45,1,1,0,0,1,.9.34,4.1,4.1,0,0,1,.41.74,6.58,6.58,0,0,0,.39.75.93.93,0,0,0,.84.34,1.68,1.68,0,0,0,1.3-.74,5.32,5.32,0,0,0,.9-2l4.49-17.45h-3l.4-1.43h2.95a33.63,33.63,0,0,1,1.48-4.74,15.32,15.32,0,0,1,1.74-3.21,6.46,6.46,0,0,1,2-1.83,4.72,4.72,0,0,1,2.27-.57,5.39,5.39,0,0,1,3,.76,2.22,2.22,0,0,1,1.18,1.91,1.93,1.93,0,0,1-.38,1.2,1.31,1.31,0,0,1-1.11.5,1.59,1.59,0,0,1-.91-.22,1.46,1.46,0,0,1-.5-.55A3,3,0,0,1,146,48a5.31,5.31,0,0,0-.21-.71,1.28,1.28,0,0,0-.37-.56,1.11,1.11,0,0,0-.74-.22,1.73,1.73,0,0,0-1.23.67,7.77,7.77,0,0,0-1.16,1.86,21.52,21.52,0,0,0-1.05,2.84c-.33,1.09-.63,2.29-.9,3.59h3.13L143,56.94h-3Z"
        />
      </svg>